# xmcd
# 
# Track frame offsets:
#     150
#     10140
#     19425
#     30812
#     41492
#     53467
#     64105
#     77572
#     88200
#     102150
#     110530
#     121920
#     130895
#     141557
#     147370
#     156220
#     166072
#     178240
#     189010
#     200782
#     212400
#     221547
#     231945
#     245712
#     257662
#     271405
#     285770
#     297910
# 
# Disc length: 4154
# 
# Revision: 4
# Processed by: cddbd v1.5.2PL0 Copyright (c) Steve Scherf et al.
# Submitted via: fre:ac v1.0.17
# 
DISCID=9010381c
DTITLE=Various Artist - Sun Country Collection CD2
DYEAR=1991
DGENRE=Country
TTITLE0=Carl Mann - The Wayward Wind
TTITLE1=Charlie Feathers - Bummin' Around
TTITLE2=Earl Peterson - In The Dark
TTITLE3=Malcolm Yelvington - Just Rolling Along
TTITLE4=Jack Earls - A Fool For Loving You
TTITLE5=Onie Wheeler - Jump Right Out Of The Jukebox
TTITLE6=Warren Smith - I'd Rather Be Safe Than Sorry
TTITLE7=The Miller Sisters - Someday You Will Pay
TTITLE8=Luke McDaniel - That's What I Tell My Heart
TTITLE9=Johnny Cash - Country Boy
TTITLE10=Carl Perkins - Sure To Fall
TTITLE11=Jerry Lee Lewis - Jambalaya (On The Bayou)
TTITLE12=Slim Rhodes - Take And Give
TTITLE13=Charlie Feathers - We're Getting Closer To Being Apart
TTITLE14=Onie Wheeler - Tell 'em Off
TTITLE15=Mack Self - Every Day
TTITLE16=Ernie Chaffin - I'm Lonesome
TTITLE17=Jack Earls - When I Dream
TTITLE18=Earl Peterson - Nothing To Lose But My Heart
TTITLE19=Charlie Feathers - I've Been Deceived
TTITLE20=Eddie Bond - The Day I Found You
TTITLE21=Jack Clement - 10 Years
TTITLE22=Charlie Rich - Sittin' And Thinkin'
TTITLE23=Warren Smith - Goodbye Mr. Love
TTITLE24=Carl Mann - If I Could Change You
TTITLE25=Rayburn Anthony - Who's Gonna Shoe Your Pretty Little Feet
TTITLE26=Jerry Lee Lewis - I Know What It Means
TTITLE27=Carl Perkins - Tennessee
EXTD=
EXTT0=
EXTT1=
EXTT2=
EXTT3=
EXTT4=
EXTT5=
EXTT6=
EXTT7=
EXTT8=
EXTT9=
EXTT10=
EXTT11=
EXTT12=
EXTT13=
EXTT14=
EXTT15=
EXTT16=
EXTT17=
EXTT18=
EXTT19=
EXTT20=
EXTT21=
EXTT22=
EXTT23=
EXTT24=
EXTT25=
EXTT26=
EXTT27=
PLAYORDER=
